<svg width="50" height="57" viewBox="0 0 50 57" fill="none" xmlns="http://www.w3.org/2000/svg">
<path d="M49.9974 16.5215C49.997 15.5766 49.7949 14.7416 49.3862 14.0252C48.9848 13.3204 48.3836 12.7297 47.5772 12.2628C40.9208 8.42467 34.258 4.59831 27.6038 0.756292C25.8099 -0.279383 24.0705 -0.241431 22.2899 0.809112C19.6404 2.37143 6.37563 9.97114 2.4229 12.2606C0.795047 13.2032 0.00293447 14.6454 0.00254321 16.5197C0 24.2384 0.00254321 31.957 0 39.6757C0 40.5998 0.193871 41.4188 0.584547 42.1244C0.986179 42.8504 1.59577 43.4572 2.42074 43.9348C6.37368 46.2243 19.6402 53.8234 22.2891 55.3863C24.0705 56.4374 25.8099 56.475 27.6044 55.4391C34.2588 51.5969 40.922 47.7705 47.5793 43.9324C48.4043 43.4551 49.0139 42.8479 49.4155 42.1224C49.8056 41.4166 49.9999 40.5979 49.9999 39.6735C49.9999 39.6735 49.9999 24.2403 49.9974 16.5215Z" fill="#A179DC"/>
<path d="M25.0764 28.0225L0.584473 42.1244C0.986104 42.8504 1.59569 43.4572 2.42067 43.9348C6.3736 46.2242 19.6402 53.8233 22.289 55.3862C24.0704 56.4374 25.8098 56.4749 27.6043 55.4391C34.2587 51.5969 40.9219 47.7705 47.5793 43.9324C48.4043 43.4551 49.0138 42.8478 49.4155 42.1224L25.0764 28.0225Z" fill="#280068"/>
<path d="M49.9976 16.5215C49.9972 15.5766 49.7951 14.7417 49.3864 14.0253L25.0767 28.0228L49.4158 42.1225C49.8059 41.4167 49.9998 40.598 50.0001 39.6736C50.0001 39.6736 50.0001 24.2404 49.9976 16.5215Z" fill="#390091"/>
<path d="M39.4962 22.7507V25.3867H42.1322V22.7507H43.4501V25.3867H46.0861V26.7046H43.4501V29.3404H46.0861V30.6583H43.4501V33.2943H42.1322V30.6583H39.4962V33.2943H38.1782V30.6583H35.5425V29.3404H38.1782V26.7046H35.5425V25.3867H38.1782V22.7507H39.4962ZM42.1322 26.7044H39.4962V29.3404H42.1322V26.7044Z" fill="white"/>
<path d="M25.1301 9.51277C32.0054 9.51277 38.008 13.2466 41.2232 18.7967L41.1919 18.7433L33.1025 23.4009C31.5089 20.7025 28.5873 18.8814 25.2356 18.8438L25.1299 18.8432C20.019 18.8432 15.8756 22.9867 15.8756 28.0976C15.8739 29.7085 16.2947 31.2917 17.0961 32.6891C18.6913 35.4739 21.6901 37.3522 25.1301 37.3522C28.5914 37.3522 31.6073 35.45 33.1942 32.6355L33.1557 32.703L41.2327 37.3821C38.0528 42.8852 32.1324 46.6075 25.3371 46.6817L25.1301 46.6828C18.2331 46.6828 12.2135 42.9259 9.00636 37.3465C7.44072 34.6227 6.54492 31.465 6.54492 28.0976C6.54492 17.8336 14.8655 9.51257 25.1299 9.51257L25.1301 9.51277Z" fill="white"/>
</svg>
