<svg width="38" height="57" viewBox="0 0 38 57" fill="none" xmlns="http://www.w3.org/2000/svg">
<path d="M9.33334 56.0667C14.4853 56.0667 18.6667 51.8853 18.6667 46.7333V37.4H9.33334C4.18134 37.4 0 41.5814 0 46.7333C0 51.8853 4.18134 56.0667 9.33334 56.0667Z" fill="#0ACF83"/>
<path d="M0 28.0666C0 22.9146 4.18134 18.7333 9.33334 18.7333H18.6667V37.3999H9.33334C4.18134 37.3999 0 33.2186 0 28.0666Z" fill="#A259FF"/>
<path d="M0 9.39998C0 4.24798 4.18134 0.0666504 9.33334 0.0666504H18.6667V18.7333H9.33334C4.18134 18.7333 0 14.552 0 9.39998Z" fill="#F24E1E"/>
<path d="M18.667 0.0666504H28.0003C33.1524 0.0666504 37.3337 4.24798 37.3337 9.39998C37.3337 14.552 33.1524 18.7333 28.0003 18.7333H18.667V0.0666504Z" fill="#FF7262"/>
<path d="M37.3337 28.0666C37.3337 33.2186 33.1524 37.3999 28.0003 37.3999C22.8483 37.3999 18.667 33.2186 18.667 28.0666C18.667 22.9146 22.8483 18.7333 28.0003 18.7333C33.1524 18.7333 37.3337 22.9146 37.3337 28.0666Z" fill="#1ABCFE"/>
</svg>
