<svg width="76" height="29" viewBox="0 0 76 29" fill="none" xmlns="http://www.w3.org/2000/svg">
<path d="M5.73551 8.59746C5.5875 8.59746 5.55049 8.52346 5.6245 8.41245L6.40157 7.41336C6.47557 7.30235 6.66059 7.22834 6.8086 7.22834H20.0188C20.1668 7.22834 20.2038 7.33935 20.1298 7.45036L19.5007 8.41245C19.4267 8.52346 19.2417 8.63447 19.1307 8.63447L5.73551 8.59746ZM0.148013 12.0018C0 12.0018 -0.0370033 11.9278 0.0370033 11.8167L0.814072 10.8177C0.888079 10.7066 1.0731 10.6326 1.22111 10.6326H18.0946C18.2426 10.6326 18.3166 10.7437 18.2796 10.8547L17.9836 11.7427C17.9466 11.8908 17.7986 11.9648 17.6506 11.9648L0.148013 12.0018ZM9.10281 15.4061C8.95479 15.4061 8.91779 15.2951 8.9918 15.184L9.50984 14.259C9.58385 14.148 9.73186 14.0369 9.87988 14.0369H17.2805C17.4285 14.0369 17.5026 14.148 17.5026 14.296L17.4285 15.184C17.4285 15.3321 17.2805 15.4431 17.1695 15.4431L9.10281 15.4061ZM47.5122 7.9314C45.181 8.52346 43.5899 8.96749 41.2957 9.55955C40.7406 9.70756 40.7036 9.74456 40.2226 9.18951C39.6675 8.56046 39.2605 8.15342 38.4834 7.78339C36.1522 6.63629 33.895 6.96932 31.7858 8.33844C29.2696 9.96658 27.9745 12.3718 28.0115 15.3691C28.0485 18.3293 30.0837 20.7715 33.0069 21.1786C35.5232 21.5116 37.6323 20.6235 39.2975 18.7364C39.6305 18.3293 39.9265 17.8853 40.2966 17.3672H33.1549C32.3779 17.3672 32.1929 16.8862 32.4519 16.2571C32.9329 15.11 33.821 13.1859 34.3391 12.2238C34.4501 12.0018 34.7091 11.6317 35.2641 11.6317H48.7333C48.6593 12.6308 48.6593 13.6299 48.5113 14.629C48.1043 17.2932 47.1052 19.7354 45.477 21.8816C42.8128 25.3969 39.3345 27.5801 34.9311 28.1722C31.3048 28.6532 27.9375 27.9502 24.9772 25.73C22.239 23.6578 20.6848 20.9196 20.2778 17.5153C19.7968 13.4819 20.9809 9.85557 23.4231 6.67329C26.0503 3.23199 29.5286 1.04879 33.784 0.271725C37.2623 -0.357331 40.5926 0.0497052 43.5899 2.08489C45.551 3.38 46.9572 5.15616 47.8822 7.30235C48.1043 7.63538 47.9563 7.82039 47.5122 7.9314Z" fill="#00ACD7"/>
<path d="M59.7598 28.3941C56.3925 28.3201 53.3213 27.358 50.731 25.1378C48.5479 23.2506 47.1787 20.8454 46.7347 17.9962C46.0686 13.8148 47.2157 10.1145 49.732 6.82119C52.4332 3.26887 55.6895 1.41871 60.0929 0.641643C63.8672 -0.0244162 67.4195 0.345617 70.6388 2.52881C73.562 4.52699 75.3752 7.22823 75.8562 10.7805C76.4853 15.776 75.0422 19.8463 71.6009 23.3246C69.1587 25.8039 66.1614 27.358 62.7201 28.0611C61.721 28.2461 60.7219 28.2831 59.7598 28.3941ZM68.5666 13.4448C68.5296 12.9637 68.5296 12.5937 68.4556 12.2237C67.7895 8.56034 64.4222 6.48816 60.9069 7.30223C57.4656 8.0793 55.2454 10.2625 54.4314 13.7408C53.7653 16.6271 55.1714 19.5503 57.8357 20.7344C59.8708 21.6225 61.906 21.5115 63.8672 20.5124C66.7905 18.9953 68.3816 16.6271 68.5666 13.4448Z" fill="#00ACD7"/>
</svg>
