<svg width="54" height="56" viewBox="0 0 54 56" fill="none" xmlns="http://www.w3.org/2000/svg">
<path d="M53.9696 12.6687C53.9896 12.7433 53.9998 12.8203 54 12.8976V24.9179C54 25.0722 53.9596 25.2237 53.8828 25.3572C53.8061 25.4907 53.6957 25.6014 53.5628 25.6782L43.5478 31.4867V42.9997C43.5478 43.3131 43.3825 43.6023 43.1128 43.76L22.2073 55.8833C22.1594 55.9107 22.1072 55.9282 22.055 55.9468C22.0354 55.9534 22.017 55.9654 21.9963 55.9709C21.8502 56.0097 21.6965 56.0097 21.5504 55.9709C21.5265 55.9643 21.5047 55.9512 21.4819 55.9424C21.434 55.9249 21.384 55.9096 21.3383 55.8833L0.437185 43.76C0.304406 43.6832 0.194081 43.5725 0.117327 43.439C0.0405738 43.3055 0.000105207 43.154 0 42.9997L0 6.939C0 6.86012 0.0108753 6.78343 0.0304507 6.70894C0.0369759 6.68374 0.0522012 6.66073 0.0609014 6.63554C0.0772143 6.58952 0.0924397 6.54242 0.116365 6.49969C0.132678 6.4712 0.156604 6.4482 0.176179 6.42191C0.201192 6.38685 0.22403 6.3507 0.253394 6.32002C0.278407 6.29482 0.311032 6.2762 0.339308 6.25429C0.370846 6.228 0.399122 6.19951 0.43501 6.1787H0.436098L10.8872 0.117082C11.0196 0.0403725 11.1696 0 11.3222 0C11.4749 0 11.6249 0.0403725 11.7572 0.117082L22.2084 6.1787H22.2105C22.2453 6.20061 22.2747 6.228 22.3062 6.25319C22.3345 6.2751 22.3661 6.29482 22.3911 6.31892C22.4215 6.3507 22.4433 6.38685 22.4694 6.42191C22.4879 6.4482 22.5129 6.4712 22.5281 6.49969C22.5531 6.54351 22.5672 6.58952 22.5846 6.63554C22.5933 6.66073 22.6086 6.68374 22.6151 6.71003C22.6351 6.78469 22.6454 6.86167 22.6455 6.939V29.4622L31.3545 24.4106V12.8965C31.3545 12.8199 31.3653 12.7421 31.3849 12.6687C31.3925 12.6424 31.4067 12.6194 31.4154 12.5942C31.4328 12.5482 31.448 12.501 31.4719 12.4583C31.4882 12.4298 31.5121 12.4068 31.5306 12.3805C31.5567 12.3455 31.5785 12.3093 31.6089 12.2787C31.6339 12.2535 31.6655 12.2348 31.6938 12.2129C31.7264 12.1866 31.7547 12.1581 31.7895 12.1373H31.7906L42.2428 6.07572C42.3751 5.9989 42.5251 5.95847 42.6778 5.95847C42.8305 5.95847 42.9805 5.9989 43.1128 6.07572L53.5639 12.1373C53.6009 12.1592 53.6292 12.1866 53.6618 12.2118C53.689 12.2337 53.7205 12.2535 53.7455 12.2776C53.776 12.3093 53.7977 12.3455 53.8238 12.3805C53.8434 12.4068 53.8673 12.4298 53.8825 12.4583C53.9076 12.501 53.9217 12.5482 53.9391 12.5942C53.9489 12.6194 53.963 12.6424 53.9696 12.6687ZM52.2578 24.4106V14.415L48.6004 16.5359L43.5478 19.4665V29.4622L52.2589 24.4106H52.2578ZM41.8067 42.4925V32.4902L36.8367 35.3496L22.6445 43.5092V53.6057L41.8067 42.4925ZM1.74222 8.45632V42.4925L20.9022 53.6046V43.5103L10.8927 37.8036L10.8894 37.8014L10.885 37.7992C10.8513 37.7795 10.8231 37.751 10.7915 37.7269C10.7643 37.705 10.7328 37.6875 10.7089 37.6634L10.7067 37.6601C10.6784 37.6327 10.6588 37.5987 10.6349 37.5681C10.6132 37.5385 10.5871 37.5133 10.5697 37.4826L10.5686 37.4793C10.549 37.4465 10.537 37.407 10.5229 37.3698C10.5088 37.3369 10.4903 37.3062 10.4816 37.2712V37.2701C10.4707 37.2284 10.4685 37.1846 10.4642 37.1419C10.4598 37.109 10.4511 37.0762 10.4511 37.0433V13.5078L5.39957 10.5762L1.74222 8.45742V8.45632ZM11.3233 1.88966L2.6155 6.939L11.3211 11.9883L20.0279 6.9379L11.3211 1.88966H11.3233ZM15.8518 33.4017L20.9033 30.4723V8.45632L17.246 10.5773L12.1933 13.5078V35.5238L15.8518 33.4017ZM42.6778 7.8483L33.971 12.8976L42.6778 17.947L51.3834 12.8965L42.6778 7.8483ZM41.8067 19.4665L36.754 16.5359L33.0967 14.415V24.4106L38.1482 27.3401L41.8067 29.4622V19.4665ZM21.7723 41.9919L34.5431 34.6474L40.9269 30.9773L32.2267 25.9313L22.2095 31.7409L13.0797 37.0356L21.7723 41.9919Z" fill="#FF2D20"/>
</svg>
