<svg width="167" height="56" viewBox="0 0 167 56" fill="none" xmlns="http://www.w3.org/2000/svg">
<path d="M24.0361 0.269465C23.1502 0.792265 21.6736 2.25611 19.9229 4.37868L21.5365 7.40047C22.665 5.79024 23.8252 4.34731 24.9853 3.1135C25.0697 3.0194 25.1224 2.96712 25.1224 2.96712C25.0802 3.0194 25.0275 3.06122 24.9853 3.1135C24.6056 3.52128 23.4666 4.83874 21.7474 7.4632C23.4033 7.37955 25.9451 7.04496 28.0228 6.68946C28.645 3.25988 27.4216 1.69148 27.4216 1.69148C27.4216 1.69148 25.8607 -0.807504 24.0361 0.269465Z" fill="url(#paint0_linear_213_160)"/>
<path d="M18.6045 25.6357C18.3936 25.6776 18.1826 25.7089 17.9717 25.7403C18.0771 25.7298 18.1932 25.7089 18.2986 25.688C18.4041 25.6776 18.5096 25.6567 18.6045 25.6357Z" fill="#BE202E"/>
<path opacity="0.35" d="M18.6045 25.6357C18.3936 25.6776 18.1826 25.7089 17.9717 25.7403C18.0771 25.7298 18.1932 25.7089 18.2986 25.688C18.4041 25.6776 18.5096 25.6567 18.6045 25.6357Z" fill="#BE202E"/>
<path d="M19.1529 22.9904C19.1424 22.9904 19.1424 22.9904 19.1529 22.9904C19.1846 22.9904 19.2162 22.9799 19.2478 22.9799C19.385 22.959 19.5221 22.9381 19.6486 22.9067C19.4904 22.9381 19.3217 22.959 19.1529 22.9904Z" fill="#BE202E"/>
<path opacity="0.35" d="M19.1529 22.9904C19.1424 22.9904 19.1424 22.9904 19.1529 22.9904C19.1846 22.9904 19.2162 22.9799 19.2478 22.9799C19.385 22.959 19.5221 22.9381 19.6486 22.9067C19.4904 22.9381 19.3217 22.959 19.1529 22.9904Z" fill="#BE202E"/>
<path d="M16.7692 15.2006C17.2649 14.291 17.7606 13.4022 18.2563 12.5344C18.7731 11.6351 19.3004 10.7673 19.8383 9.92035C19.87 9.86807 19.9016 9.81579 19.9332 9.77396C20.4606 8.94794 20.9879 8.15328 21.5258 7.38999L19.9121 4.37866C19.7961 4.52505 19.6696 4.67143 19.543 4.82827C19.0789 5.40335 18.5938 6.02026 18.0981 6.67898C17.5391 7.42136 16.9696 8.20556 16.379 9.03159C15.8411 9.79488 15.2927 10.6 14.7442 11.426C14.2802 12.137 13.8161 12.8585 13.3521 13.6009C13.331 13.6322 13.3204 13.6531 13.2993 13.6845L15.3981 17.7937C15.8622 16.9259 16.3157 16.058 16.7692 15.2006Z" fill="url(#paint1_linear_213_160)"/>
<path d="M7.2036 38.3816C6.92938 39.1345 6.64462 39.9082 6.3704 40.7029C6.3704 40.7133 6.35986 40.7238 6.35986 40.7342C6.31767 40.8492 6.27548 40.9538 6.24384 41.0688C6.054 41.6021 5.8958 42.083 5.51611 43.1705C6.13837 43.4528 6.63407 44.1847 7.09813 45.0212C7.0454 44.1533 6.68681 43.3378 6.00126 42.7104C9.04928 42.8463 11.686 42.083 13.036 39.8664C13.152 39.6677 13.268 39.4586 13.3735 39.239C12.7512 40.0128 11.9918 40.3474 10.5469 40.2637H10.5364H10.5469C12.6668 39.3227 13.7321 38.413 14.6707 36.9178C14.8922 36.5623 15.1137 36.1754 15.3352 35.7467C13.4789 37.6392 11.3274 38.1725 9.05983 37.7647L7.3618 37.9529C7.30907 38.0993 7.25633 38.2352 7.2036 38.3816Z" fill="url(#paint2_linear_213_160)"/>
<path d="M7.9946 34.607C8.36374 33.6659 8.74342 32.7144 9.1231 31.7525C9.49224 30.8323 9.87193 29.9122 10.2622 28.9816C10.6524 28.0511 11.0532 27.1205 11.4539 26.1899C11.8653 25.2384 12.2871 24.2973 12.7196 23.3563C13.1414 22.4257 13.5844 21.4951 14.0168 20.575C14.175 20.2404 14.3332 19.9163 14.502 19.5817C14.7762 19.0171 15.0609 18.4524 15.3457 17.8878C15.3562 17.8564 15.3773 17.8251 15.3879 17.7937L13.3102 13.6949C13.2785 13.7472 13.2469 13.81 13.2047 13.8622C12.7196 14.6569 12.2239 15.462 11.7493 16.288C11.2641 17.1245 10.7895 17.9715 10.3254 18.8393C9.93521 19.5712 9.55552 20.3031 9.17584 21.0455C9.10201 21.1919 9.02818 21.3487 8.95436 21.4951C8.50084 22.4257 8.07897 23.3354 7.70984 24.2032C7.28797 25.1861 6.91883 26.1271 6.59188 27.0159C6.38094 27.6014 6.18055 28.1661 6.00126 28.7098C5.8536 29.1698 5.71649 29.6404 5.57939 30.1004C5.26298 31.1879 4.99931 32.2753 4.77783 33.3627L6.88719 37.4928C7.1614 36.7505 7.45671 36.0081 7.74148 35.2448C7.82585 35.0357 7.91022 34.8265 7.9946 34.607Z" fill="url(#paint3_linear_213_160)"/>
<path d="M4.74605 33.5092C4.48238 34.8266 4.29254 36.1441 4.19762 37.4615C4.19762 37.5034 4.18707 37.5557 4.18707 37.5975C3.53317 36.5519 1.76131 35.5272 1.77186 35.5376C3.03747 37.357 3.99723 39.1554 4.13434 40.9225C3.45934 41.0584 2.53123 40.8598 1.466 40.4729C2.58396 41.4871 3.41716 41.7694 3.74411 41.8426C2.72107 41.9054 1.65584 42.6059 0.580073 43.411C2.15154 42.7732 3.4277 42.5223 4.33473 42.7314C2.88982 46.7779 1.44491 51.253 0 56.0001C0.442965 55.8746 0.706634 55.5714 0.854289 55.174C1.10741 54.3166 2.82654 48.6704 5.50542 41.2571C5.57925 41.048 5.66362 40.8388 5.73745 40.6193C5.75854 40.5565 5.77963 40.5042 5.80073 40.4415C6.08549 39.6678 6.3808 38.8731 6.68666 38.0575C6.76048 37.8693 6.82376 37.6916 6.89759 37.5034V37.4929L4.78824 33.3628C4.76714 33.4151 4.7566 33.4569 4.74605 33.5092Z" fill="url(#paint4_linear_213_160)"/>
<path d="M15.736 18.1492C15.6727 18.2747 15.6199 18.3897 15.5567 18.5152C15.3774 18.8916 15.1875 19.268 15.0082 19.6549C14.8078 20.0732 14.6075 20.5018 14.3965 20.941C14.291 21.1606 14.1856 21.3802 14.0801 21.6102C13.7637 22.2898 13.4473 22.9904 13.1204 23.7118C12.7196 24.6006 12.3188 25.5207 11.9075 26.4827C11.5172 27.3924 11.1165 28.3439 10.7157 29.3163C10.336 30.2468 9.94578 31.1983 9.55555 32.1917C9.2075 33.07 8.85946 33.9796 8.50087 34.9102C8.47978 34.9521 8.46923 35.0043 8.44813 35.0462C8.10009 35.9663 7.7415 36.9178 7.38291 37.8902C7.37236 37.9111 7.36182 37.932 7.36182 37.9529L9.05985 37.7647C9.02821 37.7543 8.99657 37.7543 8.95438 37.7438C10.9899 37.4929 13.6899 35.9872 15.4301 34.126C16.2317 33.2686 16.9594 32.2649 17.6344 31.0833C18.1406 30.205 18.6047 29.2326 19.0582 28.1452C19.4484 27.2042 19.8281 26.1795 20.1867 25.0711C19.7226 25.3116 19.1848 25.4894 18.5941 25.6148C18.4887 25.6357 18.3832 25.6567 18.2777 25.6776C18.1723 25.6985 18.0668 25.7089 17.9508 25.7299C19.8492 25.0084 21.041 23.6177 21.9058 21.903C21.4101 22.2375 20.598 22.6767 19.6277 22.8963C19.5012 22.9276 19.364 22.9486 19.2269 22.9695C19.1953 22.9695 19.1637 22.9799 19.1215 22.9799C19.7754 22.7081 20.3344 22.4048 20.8195 22.0389C20.925 21.9657 21.0199 21.882 21.1148 21.7984C21.2625 21.6729 21.3996 21.537 21.5367 21.4011C21.6211 21.307 21.7054 21.2233 21.7898 21.1292C21.9797 20.9096 22.1589 20.6691 22.3171 20.4077C22.3699 20.3241 22.4226 20.2509 22.4648 20.1673C22.5281 20.0418 22.5914 19.9268 22.6441 19.8118C22.9078 19.289 23.1187 18.8184 23.2874 18.4002C23.3718 18.1911 23.4457 18.0029 23.5089 17.8251C23.53 17.7519 23.5617 17.6892 23.5828 17.616C23.646 17.4173 23.7093 17.2396 23.7515 17.0827C23.8148 16.8527 23.857 16.6645 23.8781 16.5286C23.8148 16.5808 23.741 16.6331 23.6566 16.6749C23.0871 17.0095 22.1062 17.3232 21.3152 17.4696L22.8761 17.3023L21.3152 17.4696C21.3047 17.4696 21.2941 17.4696 21.2836 17.4801C21.2097 17.4905 21.1254 17.501 21.041 17.5219C21.0515 17.5114 21.0726 17.5114 21.0832 17.501L15.7465 18.0761C15.7571 18.1179 15.7465 18.1388 15.736 18.1492Z" fill="url(#paint5_linear_213_160)"/>
<path d="M21.7476 7.46324C21.273 8.18471 20.7562 9.01073 20.1972 9.93086C20.1656 9.98314 20.1339 10.025 20.1129 10.0772C19.6277 10.8824 19.1215 11.7607 18.5836 12.7331C18.1195 13.5696 17.6344 14.4583 17.1281 15.4307C16.6851 16.2672 16.2422 17.156 15.7676 18.097L21.1042 17.5219C22.6546 16.8109 23.3507 16.1731 24.0257 15.2425C24.205 14.9916 24.3843 14.7197 24.5636 14.4374C25.112 13.5905 25.6499 12.6599 26.1245 11.7293C26.5886 10.8301 26.9999 9.94131 27.3058 9.14666C27.5061 8.63431 27.6643 8.16379 27.7804 7.74555C27.8753 7.37959 27.9491 7.03454 28.0124 6.69995C25.9452 7.045 23.4034 7.37959 21.7476 7.46324Z" fill="url(#paint6_linear_213_160)"/>
<path d="M18.2986 25.6985C18.1932 25.7194 18.0877 25.7299 17.9717 25.7508C18.0771 25.7299 18.1826 25.7089 18.2986 25.6985Z" fill="#BE202E"/>
<path opacity="0.35" d="M18.2986 25.6985C18.1932 25.7194 18.0877 25.7299 17.9717 25.7508C18.0771 25.7299 18.1826 25.7089 18.2986 25.6985Z" fill="#BE202E"/>
<path d="M18.2986 25.6985C18.1932 25.7194 18.0877 25.7299 17.9717 25.7508C18.0771 25.7299 18.1826 25.7089 18.2986 25.6985Z" fill="url(#paint7_linear_213_160)"/>
<path d="M19.1426 22.9905C19.1744 22.9905 19.2062 22.9799 19.2486 22.9799C19.2168 22.9799 19.185 22.9905 19.1426 22.9905Z" fill="#BE202E"/>
<path opacity="0.35" d="M19.1426 22.9905C19.1744 22.9905 19.2062 22.9799 19.2486 22.9799C19.2168 22.9799 19.185 22.9905 19.1426 22.9905Z" fill="#BE202E"/>
<path d="M19.1426 22.9905C19.1744 22.9905 19.2062 22.9799 19.2486 22.9799C19.2168 22.9799 19.185 22.9905 19.1426 22.9905Z" fill="url(#paint8_linear_213_160)"/>
<path d="M21.5963 17.426V18.1903H21.3795V17.426H21.1064V17.2429H21.8613V17.426H21.5963Z" fill="#B0AFB0"/>
<path d="M22.8732 17.5932L22.6162 18.1107H22.4877L22.2307 17.5932V18.1903H22.022V17.2429H22.3111L22.56 17.7604L22.809 17.2429H23.0981V18.1903H22.8893V17.5932H22.8732Z" fill="#B0AFB0"/>
<path d="M30.3585 54.5075C29.4675 54.5075 28.6861 54.46 28.0144 54.3648C27.3426 54.2833 26.7737 54.1813 26.3076 54.059V48.7994C26.8148 48.9082 27.3495 49.0033 27.9115 49.0848C28.4599 49.1664 29.0631 49.2072 29.7211 49.2072C30.3517 49.2072 30.9343 49.1392 31.4689 49.0033C32.0173 48.8674 32.4902 48.6296 32.8878 48.2898C33.299 47.9636 33.6143 47.5219 33.8337 46.9647C34.0667 46.4075 34.1832 45.7076 34.1832 44.865V15.9373H40.5577V44.6611C40.5577 46.3735 40.3041 47.8481 39.7969 49.0848C39.3034 50.3216 38.6042 51.3409 37.6995 52.1427C36.8084 52.9582 35.7392 53.5562 34.4917 53.9367C33.2442 54.3172 31.8665 54.5075 30.3585 54.5075Z" fill="#D22128" stroke="#D22128" stroke-width="1.22877" stroke-linejoin="round"/>
<path d="M43.9736 15.9404V45.7407H49.6726V31.8756C49.6726 31.495 49.6618 31.0686 49.6481 30.593C49.6481 30.1173 49.6346 29.6239 49.6071 29.1074C49.5934 28.591 49.5772 28.0707 49.5498 27.5407C49.5361 27.0107 49.5117 26.4931 49.4843 25.9902C49.4295 24.8214 49.3618 23.6119 49.2796 22.3616H49.4679L56.0676 45.7407H61.9222L69.0377 22.4022H69.2015C69.1604 23.6389 69.1171 24.8242 69.0623 25.9658C69.0486 26.4551 69.0242 26.9593 68.9968 27.4757C68.9831 27.9922 68.9696 28.499 68.9559 29.0019C68.9421 29.5048 68.9286 29.9821 68.9149 30.4306C68.9149 30.8791 68.9149 31.2787 68.9149 31.632V45.7407H74.8596V15.9404H66.1801L59.2692 38.7269H59.1464L52.6531 15.9404H43.9736ZM103.658 18.0998L101.848 22.9055L98.4007 24.9917V27.6219H101.398V38.6052C101.398 40.073 101.573 41.2959 101.93 42.2744C102.3 43.2393 102.806 44.0117 103.436 44.5961C104.067 45.1669 104.816 45.5746 105.68 45.8056C106.544 46.0367 107.471 46.1466 108.472 46.1466C109.5 46.1466 110.45 46.0501 111.313 45.8462C112.191 45.6559 112.918 45.4065 113.508 45.1075V40.4804C112.932 40.6842 112.367 40.8559 111.805 40.9918C111.256 41.1277 110.669 41.1947 110.053 41.1947C109.34 41.1947 108.763 40.9829 108.325 40.5615C107.886 40.1402 107.67 39.4886 107.67 38.6052V27.6219H113.262V22.9542H107.67V18.0998H103.658ZM87.5595 22.5239C85.9967 22.5239 84.5738 22.776 83.2852 23.2789C82.0103 23.7817 80.912 24.5299 79.9936 25.5356C79.0888 26.5277 78.3801 27.7748 77.8729 29.2698C77.3656 30.7648 77.1113 32.5079 77.1113 34.5057C77.1113 36.4764 77.39 38.2008 77.9383 39.6686C78.5004 41.1228 79.2794 42.3323 80.2802 43.2972C81.2809 44.2486 82.4738 44.9565 83.8584 45.4322C85.243 45.9079 86.7578 46.1466 88.4029 46.1466C89.2528 46.1466 90.0318 46.1171 90.7447 46.0491C91.4575 45.9948 92.1257 45.9009 92.7426 45.765C93.3595 45.6291 93.9384 45.4601 94.4867 45.2698C95.0488 45.066 95.6087 44.8247 96.1571 44.5393V39.7254C95.5539 40.0244 94.9642 40.2899 94.3885 40.521C93.8127 40.7384 93.2256 40.9235 92.6362 41.073C92.0467 41.2225 91.4408 41.3405 90.8102 41.422C90.1933 41.49 89.536 41.5195 88.8368 41.5195C88.0006 41.5195 87.2513 41.3961 86.5933 41.1379C85.949 40.8797 85.389 40.5096 84.9229 40.0339C84.4705 39.5446 84.1189 38.9492 83.8584 38.2561C83.6117 37.5494 83.4764 36.7637 83.449 35.8939H97.4672V32.8741C97.4672 31.216 97.2373 29.7518 96.7712 28.4742C96.3188 27.1831 95.6615 26.0943 94.7979 25.2109C93.9479 24.3275 92.9037 23.6624 91.67 23.2139C90.4499 22.7519 89.0811 22.5239 87.5595 22.5239ZM125.315 22.5239C123.753 22.5239 122.33 22.776 121.041 23.2789C119.766 23.7817 118.668 24.5299 117.749 25.5356C116.845 26.5277 116.136 27.7748 115.629 29.2698C115.121 30.7648 114.867 32.5079 114.867 34.5057C114.867 36.4764 115.146 38.2008 115.694 39.6686C116.256 41.1228 117.035 42.3323 118.036 43.2972C119.037 44.2486 120.23 44.9565 121.614 45.4322C122.999 45.9079 124.514 46.1466 126.159 46.1466C127.009 46.1466 127.788 46.1171 128.501 46.0491C129.213 45.9948 129.882 45.9009 130.498 45.765C131.115 45.6291 131.694 45.4601 132.243 45.2698C132.805 45.066 133.365 44.8247 133.913 44.5393V39.7254C133.31 40.0244 132.72 40.2899 132.144 40.521C131.569 40.7384 130.981 40.9235 130.392 41.073C129.803 41.2225 129.197 41.3405 128.566 41.422C127.949 41.49 127.292 41.5195 126.593 41.5195C125.756 41.5195 125.007 41.3961 124.349 41.1379C123.705 40.8797 123.153 40.5096 122.687 40.0339C122.235 39.5446 121.875 38.9492 121.614 38.2561C121.368 37.5494 121.232 36.7637 121.205 35.8939H135.223V32.8741C135.223 31.216 134.993 29.7518 134.527 28.4742C134.075 27.1831 133.417 26.0943 132.554 25.2109C131.704 24.3275 130.66 23.6624 129.426 23.2139C128.206 22.7519 126.837 22.5239 125.315 22.5239ZM148.889 22.5239C148.121 22.5239 147.437 22.6178 146.834 22.808C146.244 22.9847 145.709 23.2395 145.229 23.5792C144.763 23.9054 144.344 24.3131 143.96 24.7888C143.576 25.2645 143.216 25.7874 142.887 26.3717H142.576L141.651 22.9542H136.902V45.7407H143.174V34.1404C143.174 33.0668 143.306 32.163 143.567 31.4291C143.841 30.6816 144.217 30.0836 144.697 29.6351C145.19 29.173 145.777 28.8405 146.449 28.6366C147.135 28.4327 147.876 28.3281 148.684 28.3281C148.822 28.3281 148.995 28.3389 149.2 28.3525C149.406 28.3525 149.609 28.3659 149.814 28.3931C150.034 28.4067 150.245 28.4308 150.437 28.458C150.629 28.4852 150.777 28.512 150.887 28.5392V22.7025C150.805 22.6754 150.683 22.6593 150.519 22.6457C150.368 22.6185 150.195 22.5944 150.003 22.5807C149.825 22.5536 149.635 22.5401 149.43 22.5401C149.238 22.5266 149.054 22.5239 148.889 22.5239V22.5239ZM87.6004 26.9481C88.2584 26.9481 88.8346 27.0688 89.3282 27.3134C89.8217 27.558 90.2355 27.8932 90.5646 28.3281C90.8936 28.7494 91.137 29.2536 91.3015 29.838C91.466 30.4224 91.558 31.0607 91.5717 31.7538H83.5718C83.6815 30.0958 84.0981 28.8836 84.8246 28.1089C85.5649 27.3343 86.49 26.9481 87.6004 26.9481ZM125.356 26.9481C126.014 26.9481 126.59 27.0688 127.084 27.3134C127.577 27.558 127.991 27.8932 128.32 28.3281C128.649 28.7494 128.893 29.2536 129.057 29.838C129.222 30.4224 129.314 31.0607 129.328 31.7538H121.328C121.437 30.0958 121.854 28.8836 122.58 28.1089C123.321 27.3343 124.246 26.9481 125.356 26.9481Z" fill="url(#paint9_linear_213_160)" stroke="url(#paint10_linear_213_160)" stroke-width="1.22877" stroke-linejoin="round"/>
<path d="M157.191 22.4671H155.797V17.0816H154.141V15.9276H158.842V17.0816H157.191V22.4671Z" fill="url(#paint11_linear_213_160)"/>
<path d="M162.51 22.4671L161.062 17.3366H161.021C161.04 17.6109 161.055 17.8763 161.067 18.1328C161.073 18.2431 161.077 18.3564 161.08 18.4727C161.086 18.589 161.091 18.7038 161.094 18.8171C161.1 18.9305 161.103 19.0393 161.103 19.1437C161.106 19.248 161.107 19.342 161.107 19.4255V22.4671H159.857V15.9276H161.761L163.187 20.9284H163.214L164.73 15.9276H166.634V22.4671H165.33V19.3718C165.33 19.2943 165.33 19.2063 165.33 19.1079C165.333 19.0095 165.336 18.9051 165.339 18.7948C165.342 18.6844 165.345 18.5726 165.348 18.4593C165.354 18.346 165.359 18.2357 165.362 18.1283C165.374 17.8778 165.384 17.6169 165.393 17.3455H165.357L163.796 22.4671H162.51Z" fill="url(#paint12_linear_213_160)"/>
<path d="M34.0967 11.3535L38.5993 0.687256H39.4669L43.9696 11.3535H42.8371L41.4397 8.02141H36.5992L35.2201 11.3535H34.0967ZM39.0377 1.91867L36.8275 7.18839H41.1931L39.0377 1.91867Z" fill="#D22128"/>
<path d="M45.1201 11.3535V0.687256H49.5771C51.422 0.687256 52.7554 2.38045 52.7554 4.03742C52.7554 5.77589 51.5133 7.41476 49.6684 7.41476H46.1704V11.3535H45.1201ZM46.1704 6.48214H49.6136C50.8831 6.48214 51.7051 5.32316 51.7051 4.03742C51.7051 2.69736 50.7096 1.61987 49.5223 1.61987H46.1704V6.48214Z" fill="#D22128"/>
<path d="M52.1709 11.3535L56.6735 0.687256H57.5412L62.0438 11.3535H60.893L59.4957 8.02141H54.6642L53.2851 11.3535H52.1709ZM57.1119 1.91867L54.9017 7.18839H59.2673L57.1119 1.91867Z" fill="#D22128"/>
<path d="M67.122 0.623901C69.0308 0.623901 70.4282 1.58368 71.0949 2.95091L70.2455 3.45796C69.5606 2.04546 68.2271 1.56557 67.0672 1.56557C64.4917 1.56557 63.0852 3.84731 63.0852 5.99323C63.0852 8.3474 64.8296 10.4843 67.1129 10.4843C68.3276 10.4843 69.7523 9.88666 70.4282 8.50132L71.305 8.95405C70.6109 10.5476 68.702 11.435 67.0489 11.435C64.099 11.435 62.0166 8.63714 62.0166 5.9389C62.0166 3.37647 63.8798 0.623901 67.122 0.623901Z" fill="#D22128"/>
<path d="M81.269 0.687256V11.3535H80.2095V6.36443H73.8346V11.3535H72.7935V0.687256H73.8346V5.43182H80.2095V0.687256H81.269Z" fill="#D22128"/>
<path d="M90.923 10.4209V11.3535H83.6987V0.687256H90.786V1.61987H84.7399V5.46804H90.0097V6.35538H84.7399V10.4209H90.923Z" fill="#D22128"/>
<defs>
<linearGradient id="paint0_linear_213_160" x1="21.2995" y1="4.74347" x2="33.1111" y2="1.431" gradientUnits="userSpaceOnUse">
<stop stop-color="#F69923"/>
<stop offset="0.3123" stop-color="#F79A23"/>
<stop offset="0.8383" stop-color="#E97826"/>
</linearGradient>
<linearGradient id="paint1_linear_213_160" x1="-4.58635" y1="57.3642" x2="19.1279" y2="6.06561" gradientUnits="userSpaceOnUse">
<stop offset="0.3233" stop-color="#9E2064"/>
<stop offset="0.6302" stop-color="#C92037"/>
<stop offset="0.7514" stop-color="#CD2335"/>
<stop offset="1" stop-color="#E97826"/>
</linearGradient>
<linearGradient id="paint2_linear_213_160" x1="3.49156" y1="53.5826" x2="17.623" y2="23.0136" gradientUnits="userSpaceOnUse">
<stop stop-color="#282662"/>
<stop offset="0.0954839" stop-color="#662E8D"/>
<stop offset="0.7882" stop-color="#9F2064"/>
<stop offset="0.9487" stop-color="#CD2032"/>
</linearGradient>
<linearGradient id="paint3_linear_213_160" x1="-3.71577" y1="54.2697" x2="19.9985" y2="2.97097" gradientUnits="userSpaceOnUse">
<stop offset="0.3233" stop-color="#9E2064"/>
<stop offset="0.6302" stop-color="#C92037"/>
<stop offset="0.7514" stop-color="#CD2335"/>
<stop offset="1" stop-color="#E97826"/>
</linearGradient>
<linearGradient id="paint4_linear_213_160" x1="-1.26367" y1="50.8625" x2="11.1989" y2="23.9036" gradientUnits="userSpaceOnUse">
<stop stop-color="#282662"/>
<stop offset="0.0954839" stop-color="#662E8D"/>
<stop offset="0.7882" stop-color="#9F2064"/>
<stop offset="0.9487" stop-color="#CD2032"/>
</linearGradient>
<linearGradient id="paint5_linear_213_160" x1="1.62318" y1="56.7378" x2="25.3375" y2="5.43908" gradientUnits="userSpaceOnUse">
<stop offset="0.3233" stop-color="#9E2064"/>
<stop offset="0.6302" stop-color="#C92037"/>
<stop offset="0.7514" stop-color="#CD2335"/>
<stop offset="1" stop-color="#E97826"/>
</linearGradient>
<linearGradient id="paint6_linear_213_160" x1="-0.134066" y1="59.7877" x2="23.5802" y2="8.48903" gradientUnits="userSpaceOnUse">
<stop offset="0.3233" stop-color="#9E2064"/>
<stop offset="0.6302" stop-color="#C92037"/>
<stop offset="0.7514" stop-color="#CD2335"/>
<stop offset="1" stop-color="#E97826"/>
</linearGradient>
<linearGradient id="paint7_linear_213_160" x1="3.21093" y1="57.4719" x2="26.9253" y2="6.17319" gradientUnits="userSpaceOnUse">
<stop offset="0.3233" stop-color="#9E2064"/>
<stop offset="0.6302" stop-color="#C92037"/>
<stop offset="0.7514" stop-color="#CD2335"/>
<stop offset="1" stop-color="#E97826"/>
</linearGradient>
<linearGradient id="paint8_linear_213_160" x1="2.94635" y1="57.9139" x2="27.1796" y2="6.01603" gradientUnits="userSpaceOnUse">
<stop offset="0.3233" stop-color="#9E2064"/>
<stop offset="0.6302" stop-color="#C92037"/>
<stop offset="0.7514" stop-color="#CD2335"/>
<stop offset="1" stop-color="#E97826"/>
</linearGradient>
<linearGradient id="paint9_linear_213_160" x1="43.9736" y1="15.9404" x2="150.887" y2="15.9404" gradientUnits="userSpaceOnUse">
<stop/>
<stop offset="1"/>
</linearGradient>
<linearGradient id="paint10_linear_213_160" x1="43.9736" y1="15.9404" x2="150.887" y2="15.9404" gradientUnits="userSpaceOnUse">
<stop/>
<stop offset="1"/>
</linearGradient>
<linearGradient id="paint11_linear_213_160" x1="154.141" y1="15.9276" x2="158.842" y2="15.9276" gradientUnits="userSpaceOnUse">
<stop stop-color="#4D4D4D"/>
<stop offset="1" stop-color="#4D4D4D"/>
</linearGradient>
<linearGradient id="paint12_linear_213_160" x1="159.857" y1="15.9276" x2="166.634" y2="15.9276" gradientUnits="userSpaceOnUse">
<stop stop-color="#4D4D4D"/>
<stop offset="1" stop-color="#4D4D4D"/>
</linearGradient>
</defs>
</svg>
