<svg width="55" height="57" viewBox="0 0 55 57" fill="none" xmlns="http://www.w3.org/2000/svg">
<path d="M9.75447 54.2955L0 54.6339L5.00028 49.5499L9.75486 54.2959L9.75447 54.2955Z" fill="#F15A24"/>
<path d="M54.0019 29.0795C52.1897 43.2097 39.2647 53.1927 25.1369 51.3785C11.0067 49.5659 1.0237 36.6413 2.83597 22.5123C4.64941 8.38253 17.5716 -1.60168 31.703 0.212925C45.8323 2.0248 55.8177 14.9509 54.0019 29.0795Z" fill="#F15A24"/>
<path d="M34.996 18.4633C36.691 20.2651 35.0181 24.5251 35.0181 24.5251C35.0181 24.5251 33.3648 30.548 23.8984 38.3581L22.1313 36.6238L34.1482 24.3421L34.3803 24.0286C34.7 23.5076 34.9648 18.4283 34.996 18.4633Z" fill="#999999"/>
<path d="M34.996 18.4633C36.691 20.2651 35.0181 24.5251 35.0181 24.5251C35.0181 24.5251 33.3648 30.548 23.8984 38.3581L22.1313 36.6238L34.1482 24.3421L34.3803 24.0286C34.7 23.5076 34.9648 18.4283 34.996 18.4633Z" stroke="white" stroke-linecap="round" stroke-linejoin="round"/>
<path d="M19.5361 34.0705L34.9708 18.4189C35.7542 19.3492 35.9209 20.3515 35.6935 21.7795C35.5405 22.7685 33.8322 24.7451 33.8322 24.7451L22.1315 36.6238" fill="#666666"/>
<path d="M19.5361 34.0705L34.9708 18.4189C35.7542 19.3492 35.9209 20.3515 35.6935 21.7795C35.5405 22.7685 33.8322 24.7451 33.8322 24.7451L22.1315 36.6238" stroke="white" stroke-width="1.201" stroke-linecap="round" stroke-linejoin="round"/>
<path d="M34.9963 18.4742L19.5364 34.0709L19.5675 34.0405L19.5617 34.0428L15.7261 30.2633C23.7247 20.3138 28.8964 18.4587 28.8964 18.4587C28.8964 18.4587 32.2631 17.1444 34.6649 18.1643C34.8495 18.2632 34.9297 18.32 34.9959 18.4746" fill="#FF931E"/>
<path d="M34.9963 18.4742L19.5364 34.0709L19.5675 34.0405L19.5617 34.0428L15.7261 30.2633C23.7247 20.3138 28.8964 18.4587 28.8964 18.4587C28.8964 18.4587 32.2631 17.1444 34.6649 18.1643C34.8495 18.2632 34.9297 18.32 34.9959 18.4746L34.9963 18.4742Z" stroke="white" stroke-linecap="round" stroke-linejoin="round"/>
<path d="M23.8988 38.3577C20.2104 41.3954 15.4901 46.1671 9.07394 49.4953L10.5011 55.5965L4.45215 49.6386L19.5359 34.0704" fill="#999999"/>
<path d="M23.8988 38.3577C20.2104 41.3954 15.4901 46.1671 9.07394 49.4953L10.5011 55.5965L4.45215 49.6386L19.5359 34.0704" stroke="white" stroke-linecap="round" stroke-linejoin="round"/>
<path d="M15.829 30.3143L19.5762 34.0467L10.9194 35.9217L15.746 30.2469L15.8294 30.3143H15.829Z" fill="#F15A24"/>
<path d="M15.829 30.3143L19.5762 34.0467L10.9194 35.9217L15.746 30.2469L15.8294 30.3143H15.829Z" stroke="white" stroke-linecap="round" stroke-linejoin="round"/>
<path d="M33.5202 13.9482C33.1526 17.2659 35.5412 20.2526 38.8589 20.6225C42.1739 20.9909 45.1633 18.6004 45.5332 15.2839C45.902 11.9674 43.5095 8.97754 40.1934 8.60878C36.8753 8.24235 33.8882 10.6298 33.5202 13.9482Z" fill="#999999"/>
<path d="M33.5202 13.9482C33.1526 17.2659 35.5412 20.2526 38.8589 20.6225C42.1739 20.9909 45.1633 18.6004 45.5332 15.2839C45.902 11.9674 43.5095 8.97754 40.1934 8.60878C36.8753 8.24235 33.8882 10.6298 33.5202 13.9482Z" stroke="white" stroke-linecap="round" stroke-linejoin="round"/>
<path d="M44.6654 17.9555C45.7803 16.3267 45.7227 13.8898 45.4988 13.1679C45.2242 12.2839 44.6098 10.8463 43.5381 10.099L37.8716 15.3185C37.8716 15.3185 42.2266 19.9975 42.3399 20.0131C42.3871 20.0186 43.6487 19.4407 44.6654 17.9555Z" fill="#666666"/>
<path d="M44.6654 17.9555C45.7803 16.3267 45.7227 13.8898 45.4988 13.1679C45.2242 12.2839 44.6098 10.8463 43.5381 10.099L37.8716 15.3185C37.8716 15.3185 42.2266 19.9975 42.3399 20.0131C42.3871 20.0186 43.6487 19.4407 44.6654 17.9555ZM43.5222 13.8668C43.5222 13.8668 44.0669 15.2048 43.3757 16.2457L43.5222 13.8668Z" stroke="white" stroke-linecap="round" stroke-linejoin="round"/>
<path d="M22.265 36.6261L16.0112 37.7391L19.7861 33.817" fill="#666666"/>
<path d="M22.2649 36.6261L16.0111 37.739L19.786 33.8169M15.9741 30.3416L23.9245 37.8239" stroke="white" stroke-width="1.918" stroke-linecap="round" stroke-linejoin="round"/>
</svg>
