<svg width="73" height="67" viewBox="0 0 73 67" fill="none" xmlns="http://www.w3.org/2000/svg">
<path d="M36.6978 46.7099C56.1565 46.7099 71.9308 40.6833 71.9308 33.2493C71.9308 25.8152 56.1565 19.7887 36.6978 19.7887C17.2392 19.7887 1.46484 25.8152 1.46484 33.2493C1.46484 40.6833 17.2392 46.7099 36.6978 46.7099Z" stroke="#61DAFB"/>
<path d="M25.0474 39.9795C34.7767 56.8412 47.8799 67.497 54.3141 63.78C60.7484 60.0629 58.0773 43.3806 48.3479 26.5189C38.6186 9.65725 25.5154 -0.998588 19.0812 2.71845C12.6469 6.43548 15.318 23.1178 25.0474 39.9795Z" stroke="#61DAFB"/>
<path d="M25.0478 26.5189C15.3184 43.3806 12.6473 60.0629 19.0816 63.78C25.5158 67.497 38.619 56.8412 48.3483 39.9795C58.0777 23.1178 60.7488 6.43548 54.3146 2.71844C47.8803 -0.998594 34.7771 9.65724 25.0478 26.5189Z" stroke="#61DAFB"/>
</svg>
