<svg width="57" height="57" viewBox="0 0 57 57" fill="none" xmlns="http://www.w3.org/2000/svg">
<path d="M28.072 56.144C43.5757 56.144 56.144 43.5757 56.144 28.072C56.144 12.5683 43.5757 0 28.072 0C12.5683 0 0 12.5683 0 28.072C0 43.5757 12.5683 56.144 28.072 56.144Z" fill="black"/>
<path d="M40.3449 10.3869C37.4939 10.4869 35.0029 12.0589 33.1519 14.2329C31.0989 16.6169 29.7349 19.4459 28.7509 22.3319C26.9919 20.8899 25.6349 19.0239 22.8129 18.2099C20.6299 17.5829 18.3399 17.8409 16.2329 19.4109C15.2339 20.1569 14.5469 21.2839 14.2199 22.3429C13.3719 25.0969 15.1089 27.5479 15.8989 28.4289L17.6239 30.2749C17.9799 30.6379 18.8349 31.5839 18.4179 32.9389C17.9649 34.4139 16.1889 35.3669 14.3659 34.8059C13.5519 34.5539 12.3819 33.9489 12.6449 33.0969C12.7529 32.7469 13.0029 32.4839 13.1379 32.1849C13.2609 31.9249 13.3189 31.7309 13.3559 31.6169C13.6889 30.5289 13.2339 29.1149 12.0699 28.7559C10.9829 28.4239 9.87287 28.6879 9.44187 30.0849C8.95187 31.6759 9.71287 34.5569 13.7859 35.8139C18.5579 37.2809 22.5949 34.6809 23.1669 31.2929C23.5279 29.1709 22.5679 27.5929 20.8129 25.5639L19.3829 23.9829C18.5159 23.1159 18.2189 21.6409 19.1149 20.5079C19.8719 19.5509 20.9489 19.1429 22.7159 19.6219C25.2929 20.3199 26.4419 22.1089 28.3579 23.5519C27.5669 26.1469 27.0489 28.7519 26.5819 31.0899L26.2949 32.8299C24.9239 40.0159 23.8789 43.9609 21.1609 46.2259C20.6139 46.6169 19.8299 47.1989 18.6509 47.2399C18.0319 47.2599 17.8329 46.8339 17.8229 46.6479C17.8089 46.2139 18.1759 46.0149 18.4189 45.8199C18.7819 45.6209 19.3309 45.2929 19.2939 44.2419C19.2529 42.9959 18.2229 41.9179 16.7349 41.9689C15.6179 42.0059 13.9189 43.0549 13.9829 44.9789C14.0489 46.9629 15.8989 48.4519 18.6889 48.3559C20.1809 48.3069 23.5109 47.6999 26.7919 43.7989C30.6109 39.3259 31.6799 34.1989 32.4839 30.4469L33.3799 25.4939C33.8789 25.5529 34.4109 25.5939 34.9909 25.6069C39.7479 25.7089 42.1269 23.2439 42.1639 21.4519C42.1869 20.3669 41.4519 19.2999 40.4219 19.3239C39.6859 19.3449 38.7599 19.8349 38.5379 20.8529C38.3209 21.8529 40.0519 22.7549 38.6989 23.6319C37.7379 24.2549 36.0149 24.6929 33.5889 24.3369L34.0309 21.8979C34.9299 17.2739 36.0419 11.5859 40.2549 11.4489C40.5619 11.4329 41.6859 11.4629 41.7119 12.2049C41.7189 12.4529 41.6579 12.5169 41.3679 13.0849C41.0709 13.5269 40.9599 13.9039 40.9729 14.3379C41.0149 15.5179 41.9119 16.2939 43.2109 16.2479C44.9479 16.1909 45.4479 14.4999 45.4199 13.6299C45.3479 11.5849 43.1939 10.2949 40.3449 10.3869Z" fill="white"/>
</svg>
